<mxfile host="app.diagrams.net" modified="2023-11-23T02:08:15.380Z" agent="Mozilla/5.0 (Windows NT 10.0; Win64; x64) AppleWebKit/537.36 (KHTML, like Gecko) Chrome/119.0.0.0 Safari/537.36 Edg/119.0.0.0" etag="wJoS16If7rpke8p31rST" version="22.1.3" type="github">
  <diagram name="Página-1" id="uX1cRTSGqQIuIfklaSvz">
    <mxGraphModel dx="1002" dy="569" grid="1" gridSize="10" guides="1" tooltips="1" connect="1" arrows="1" fold="1" page="1" pageScale="1" pageWidth="827" pageHeight="1169" math="0" shadow="0">
      <root>
        <mxCell id="0" />
        <mxCell id="1" parent="0" />
        <mxCell id="pUFimggBOy2asVwzkW1B-11" value="" style="edgeStyle=orthogonalEdgeStyle;rounded=0;orthogonalLoop=1;jettySize=auto;html=1;" edge="1" parent="1" source="LORWF3_VWUI8dcK7ASF6-7" target="LORWF3_VWUI8dcK7ASF6-19">
          <mxGeometry relative="1" as="geometry" />
        </mxCell>
        <mxCell id="LORWF3_VWUI8dcK7ASF6-7" value="Início do &lt;br&gt;Projeto" style="ellipse;whiteSpace=wrap;html=1;" parent="1" vertex="1">
          <mxGeometry x="30" y="277.5" width="90" height="65" as="geometry" />
        </mxCell>
        <mxCell id="pUFimggBOy2asVwzkW1B-13" value="" style="edgeStyle=orthogonalEdgeStyle;rounded=0;orthogonalLoop=1;jettySize=auto;html=1;" edge="1" parent="1" source="LORWF3_VWUI8dcK7ASF6-10" target="LORWF3_VWUI8dcK7ASF6-16">
          <mxGeometry relative="1" as="geometry" />
        </mxCell>
        <mxCell id="pUFimggBOy2asVwzkW1B-14" value="" style="edgeStyle=orthogonalEdgeStyle;rounded=0;orthogonalLoop=1;jettySize=auto;html=1;" edge="1" parent="1" source="LORWF3_VWUI8dcK7ASF6-10" target="pUFimggBOy2asVwzkW1B-10">
          <mxGeometry relative="1" as="geometry" />
        </mxCell>
        <mxCell id="pUFimggBOy2asVwzkW1B-15" value="" style="edgeStyle=orthogonalEdgeStyle;rounded=0;orthogonalLoop=1;jettySize=auto;html=1;" edge="1" parent="1" source="LORWF3_VWUI8dcK7ASF6-10" target="LORWF3_VWUI8dcK7ASF6-12">
          <mxGeometry relative="1" as="geometry" />
        </mxCell>
        <mxCell id="LORWF3_VWUI8dcK7ASF6-10" value="Levantamento de dados&lt;br style=&quot;border-color: var(--border-color);&quot;&gt;Duração:15 dias" style="rounded=0;whiteSpace=wrap;html=1;" parent="1" vertex="1">
          <mxGeometry x="290" y="285" width="110" height="50" as="geometry" />
        </mxCell>
        <mxCell id="pUFimggBOy2asVwzkW1B-16" value="" style="edgeStyle=orthogonalEdgeStyle;rounded=0;orthogonalLoop=1;jettySize=auto;html=1;" edge="1" parent="1" source="LORWF3_VWUI8dcK7ASF6-12" target="pUFimggBOy2asVwzkW1B-9">
          <mxGeometry relative="1" as="geometry" />
        </mxCell>
        <mxCell id="LORWF3_VWUI8dcK7ASF6-12" value="Análise e planejamento&lt;br style=&quot;border-color: var(--border-color);&quot;&gt;Duração:15 dias" style="rounded=0;whiteSpace=wrap;html=1;" parent="1" vertex="1">
          <mxGeometry x="430" y="285" width="110" height="50" as="geometry" />
        </mxCell>
        <mxCell id="LORWF3_VWUI8dcK7ASF6-16" value="Definição do setor de aplicação&lt;br&gt;Duração: 2 dias" style="rounded=0;whiteSpace=wrap;html=1;" parent="1" vertex="1">
          <mxGeometry x="290" y="200" width="110" height="50" as="geometry" />
        </mxCell>
        <mxCell id="LORWF3_VWUI8dcK7ASF6-17" value="Final do &lt;br&gt;Projeto" style="ellipse;whiteSpace=wrap;html=1;" parent="1" vertex="1">
          <mxGeometry x="720" y="277.5" width="90" height="65" as="geometry" />
        </mxCell>
        <mxCell id="pUFimggBOy2asVwzkW1B-12" value="" style="edgeStyle=orthogonalEdgeStyle;rounded=0;orthogonalLoop=1;jettySize=auto;html=1;" edge="1" parent="1" source="LORWF3_VWUI8dcK7ASF6-19" target="LORWF3_VWUI8dcK7ASF6-10">
          <mxGeometry relative="1" as="geometry" />
        </mxCell>
        <mxCell id="LORWF3_VWUI8dcK7ASF6-19" value="Pesquisas para definir o projeto&lt;br&gt;Duração: 15 dias" style="rounded=0;whiteSpace=wrap;html=1;" parent="1" vertex="1">
          <mxGeometry x="140" y="285" width="110" height="50" as="geometry" />
        </mxCell>
        <mxCell id="pUFimggBOy2asVwzkW1B-17" value="" style="edgeStyle=orthogonalEdgeStyle;rounded=0;orthogonalLoop=1;jettySize=auto;html=1;" edge="1" parent="1" source="pUFimggBOy2asVwzkW1B-9" target="LORWF3_VWUI8dcK7ASF6-17">
          <mxGeometry relative="1" as="geometry" />
        </mxCell>
        <mxCell id="pUFimggBOy2asVwzkW1B-9" value="Escrita do Trabalho Final&amp;nbsp;&lt;br&gt;Duração: 10 dias" style="rounded=0;whiteSpace=wrap;html=1;" vertex="1" parent="1">
          <mxGeometry x="580" y="285" width="110" height="50" as="geometry" />
        </mxCell>
        <mxCell id="pUFimggBOy2asVwzkW1B-10" value="Definição dos objetivos&amp;nbsp;&lt;br&gt;Duração: 2 dias" style="rounded=0;whiteSpace=wrap;html=1;" vertex="1" parent="1">
          <mxGeometry x="290" y="370" width="110" height="50" as="geometry" />
        </mxCell>
      </root>
    </mxGraphModel>
  </diagram>
</mxfile>
